<svg xmlns="http://www.w3.org/2000/svg" width="24.406" height="32.536" viewBox="0 0 24.406 32.536">
  <path id="ic_whatshot_24px" d="M18.491.67A32.785,32.785,0,0,1,19.62,7.992c0,3.142-2.059,5.69-5.2,5.69a5.552,5.552,0,0,1-5.537-5.69l.046-.549A21,21,0,0,0,4,21a12.2,12.2,0,1,0,24.406,0A26.106,26.106,0,0,0,18.491.67Zm-2.73,27.96a4.844,4.844,0,0,1-4.912-4.79c0-2.471,1.6-4.21,4.286-4.759,2.7-.549,5.491-1.846,7.047-3.935a21.284,21.284,0,0,1,.9,6.162,7.324,7.324,0,0,1-7.322,7.322Z" transform="translate(-4 -0.67)" fill="#426d53"/>
</svg>
