<svg xmlns="http://www.w3.org/2000/svg" width="25.4" height="25.4" viewBox="0 0 25.4 25.4">
  <g id="Слой_x0020_1" transform="translate(46.474 90.243)">
    <g id="_2406250253216" transform="translate(-46.474 -90.244)">
      <path id="Path_3300" data-name="Path 3300" d="M-46.474,18.487v3.671a.808.808,0,0,0,.794.695h23.812a.808.808,0,0,0,.794-.695V18.487a.723.723,0,0,0-.294-.6,1.212,1.212,0,0,0-.747-.2H-45.432a1.2,1.2,0,0,0-.719.174.722.722,0,0,0-.323.619Z" transform="translate(46.474 2.547)" fill="#426d53" fill-rule="evenodd"/>
      <path id="Path_3301" data-name="Path 3301" d="M-12.082-50.925a3.4,3.4,0,0,0,.43,1.952,2.916,2.916,0,0,0,.363.579,3.9,3.9,0,0,0,1.651,1.276,4.2,4.2,0,0,0,1.623.311h4.366a4,4,0,0,0,3.655-2.2,3.444,3.444,0,0,0,.413-1.918c0-.433-.478-.695-.943-.695H-11.139c-.464,0-.943.262-.943.695Z" transform="translate(18.531 58.862)" fill="#426d53" fill-rule="evenodd"/>
      <path id="Path_3302" data-name="Path 3302" d="M-12.082.977v.645a.8.8,0,0,0,.794.695H-.374a.8.8,0,0,0,.794-.695c0-.5.115-1.389-.744-1.389H-11.338A.729.729,0,0,0-12.082.977Z" transform="translate(18.531 16.734)" fill="#426d53" fill-rule="evenodd"/>
      <path id="Path_3303" data-name="Path 3303" d="M-17.9-88.656c0,.667.435.843.943.843s.617-.794,2.53-.794A3.182,3.182,0,0,1-11.4-85.381c-.016,1.63,1.316,1.4,1.6.759.174-.386-.028-1.278.381-2.1.212-.427.4-.578.4-.942,0-.9-1.3-1.047-1.488-.347a2.752,2.752,0,0,1-.336-.408,4.968,4.968,0,0,0-3.661-1.824h-.339a4.6,4.6,0,0,0-2.54.864,1.807,1.807,0,0,0-.328.267A1.3,1.3,0,0,0-17.9-88.656Z" transform="translate(23.26 90.243)" fill="#426d53" fill-rule="evenodd"/>
      <path id="Path_3304" data-name="Path 3304" d="M3.723-19.658c0,.814-.2,2.034.843,2.034H9.428c1.046,0,.843-1.193.843-2.034a.84.84,0,0,0-.744-.744H4.467A.84.84,0,0,0,3.723-19.658Z" transform="translate(5.703 33.499)" fill="#426d53" fill-rule="evenodd"/>
      <path id="Path_3305" data-name="Path 3305" d="M31.2-88.309c.407,0,2.155-1.072,3.956.757.812.825,1.5.161,1.5-.459,0-.579-1.021-1.347-1.488-1.588a4.869,4.869,0,0,0-2.481-.644,4.454,4.454,0,0,0-2.022.508A.812.812,0,0,0,31.2-88.309Z" transform="translate(-15.971 90.243)" fill="#426d53" fill-rule="evenodd"/>
      <path id="Path_3306" data-name="Path 3306" d="M60.308-67.779c0,.86-.129,1.374.233,1.751a.783.783,0,0,0,1.355-.511c0-.873.141-1.516-.278-1.856A.8.8,0,0,0,60.308-67.779Z" transform="translate(-40.266 72.641)" fill="#426d53" fill-rule="evenodd"/>
      <path id="Path_3307" data-name="Path 3307" d="M-26.368-72.519a.809.809,0,0,0,1.52.379c.172-.317.073-.559.144-.947.067-.368.184-.538.022-.869a.812.812,0,0,0-1.529.206,4.986,4.986,0,0,0-.157,1.232Z" transform="translate(30.138 77.381)" fill="#426d53" fill-rule="evenodd"/>
      <path id="Path_3308" data-name="Path 3308" d="M-26.389-54.81c0,.852-.13,1.587.943,1.587.826,0,.849-1.658.491-2.078a.644.644,0,0,0-.211-.186A.805.805,0,0,0-26.389-54.81Z" transform="translate(30.159 62.102)" fill="#426d53" fill-rule="evenodd"/>
    </g>
  </g>
</svg>
