<svg xmlns="http://www.w3.org/2000/svg" width="21.958" height="30.742" viewBox="0 0 21.958 30.742">
  <g id="key" transform="translate(-9 -3)">
    <g id="Group_332" data-name="Group 332" transform="translate(9 3)">
      <path id="Path_1354" data-name="Path 1354" d="M26.783,35.639l-2.928,2.928H20.928L18,35.639V21h8.783v5.856l-1.464,1.464,1.464,1.464v1.464l-1.464,1.464,1.464,1.464Z" transform="translate(-11.412 -7.825)" fill="#426d53"/>
      <path id="Path_1355" data-name="Path 1355" d="M30.227,6.513a3.919,3.919,0,0,0-2.708-2.635A36.734,36.734,0,0,0,19.979,3a36.734,36.734,0,0,0-7.539.878A3.919,3.919,0,0,0,9.732,6.513,17.788,17.788,0,0,0,9,11.417a17.788,17.788,0,0,0,.732,4.9,3.575,3.575,0,0,0,2.708,2.562,31.669,31.669,0,0,0,7.539.952,36.734,36.734,0,0,0,7.539-.878,3.7,3.7,0,0,0,2.708-2.562,17.788,17.788,0,0,0,.732-4.9A17.914,17.914,0,0,0,30.227,6.513Zm-6.588,3.806H16.319a1.468,1.468,0,0,1-1.464-1.464V7.392c0-.439,2.269-.732,5.124-.732s5.124.293,5.124.732V8.856A1.468,1.468,0,0,1,23.639,10.319Z" transform="translate(-9 -3)" fill="#426d53"/>
    </g>
    <rect id="Rectangle_540" data-name="Rectangle 540" width="1.464" height="13.907" transform="translate(19.247 19.835)" fill="#86a294"/>
  </g>
</svg>
