<svg xmlns="http://www.w3.org/2000/svg" width="24.406" height="22.963" viewBox="0 0 24.406 22.963">
  <g id="_2406251893168" transform="translate(55.868 -20.806)">
    <path id="Path_3291" data-name="Path 3291" d="M-52.793,47.044h19.774c1.723-1.654.769-6.04-.381-8.359a33.13,33.13,0,0,0-1.872-3.192c-.905-1.435-.97-2.089-3.018-2.227-.023-1.154.415-3.268-1.829-2.994-.751.092-.878.16-.954.692L-41.4,33.4l-3.091-.049-.232-2.4c-.109-.511-.09-.484-.783-.638-2.468-.55-1.97,2.116-2.079,2.92-2.282.665-1.613.264-2.807,2.19-1.118,1.8-3.037,4.846-3.2,7.009-.158,2.046-.269,3.55.805,4.616Z" transform="translate(-0.754 -3.275)" fill="#426d53" fill-rule="evenodd"/>
    <path id="Path_3292" data-name="Path 3292" d="M-55.868,25.872V29.2c1.208,1.054,1.825.88,3.931.838,2.4-.049,1.789-.79,2.3-2.635.652-2.375,3.057-3.421,5.977-3.427,2.9-.005,5.4,1.12,6.018,3.391.46,1.691-.079,2.54,2.021,2.665,1.993.119,3.1.232,4.163-.8V25.856a11.645,11.645,0,0,0-2.188-2.232c-4.379-3.534-13.213-3.369-17.45-1.555A12.142,12.142,0,0,0-55.868,25.872Z" transform="translate(0 0)" fill="#426d53" fill-rule="evenodd"/>
    <path id="Path_3293" data-name="Path 3293" d="M-40.616,39.8c-5.834,1.394-4.017,10.226,2.152,8.887C-32.769,47.455-34.663,38.382-40.616,39.8Z" transform="translate(-4.066 -6.546)" fill="#fafafa" fill-rule="evenodd"/>
    <path id="Path_3294" data-name="Path 3294" d="M-39.59,42.163a2.93,2.93,0,0,0-2.115,3.8A3.069,3.069,0,0,0-37.8,47.968C-34.413,46.9-35.74,40.836-39.59,42.163Z" transform="translate(-4.87 -7.352)" fill="#426d53" fill-rule="evenodd"/>
  </g>
</svg>
