<svg id="_2406251892928" xmlns="http://www.w3.org/2000/svg" width="25.4" height="33.865" viewBox="0 0 25.4 33.865">
  <path id="Path_3295" data-name="Path 3295" d="M-34.84-15.816c-1.638.136-.617-.378-1.411.706a6.129,6.129,0,0,1,5.644,6V7.466c0,1.8-.925,2.544-2.514,2.822H-41.19a2.711,2.711,0,0,1-2.117-2.117V-9.113a6.129,6.129,0,0,1,5.644-6c-.794-1.084.227-.569-1.411-.706v-4.233h4.233v4.233Z" transform="translate(43.307 23.577)" fill="#426d53" fill-rule="evenodd"/>
  <path id="Path_3296" data-name="Path 3296" d="M-41.9-15.463c0,4.059-1.365,3.619-2.675,5.439-1.334,1.854-.922,3.38-4.381,3.38-3.67,0-4.233-2.4-4.233-5.291a7.154,7.154,0,0,1,2.469-.353c.264,1.134.434,2.25,1.285,2.562,1.53.56.377.172.832-.093,1.4-.563.2.22.878-1.238.535-1.15-.061-.574,1.024-1.445,4.074-3.269,1.192-3.685-.844-6.135-1.991-2.4-1.395-.294-3.4-.874-1.966-.57.358-.641-1.9-1.243-.255,1.095-.451,1.022-.706,2.117-2.21,0-2.469.27-2.469-1.764,0-2.257,1.723-3.175,3.88-3.175,1.822,0,.343.085,1.667.45,1.963.541,3.475-.192,5.027,2.029,1.92,2.747,3.537,2.343,3.537,5.635Z" transform="translate(67.296 23.577)" fill="#426d53" fill-rule="evenodd"/>
  <path id="Path_3297" data-name="Path 3297" d="M-50.362-16.521h5.644v1.411h-5.644Z" transform="translate(64.473 23.577)" fill="#426d53" fill-rule="evenodd"/>
  <path id="Path_3298" data-name="Path 3298" d="M-42.6-12.994h-4.233V-14.4H-42.6Z" transform="translate(58.829 23.577)" fill="#426d53" fill-rule="evenodd"/>
  <path id="Path_3299" data-name="Path 3299" d="M-40.485-16.521h-4.233v-1.411h4.233Z" transform="translate(54.596 23.577)" fill="#426d53" fill-rule="evenodd"/>
</svg>
