<svg xmlns="http://www.w3.org/2000/svg" width="895.768" height="334.663" viewBox="0 0 895.768 334.663">
  <g id="Слой_x0020_1" transform="translate(143.285 -193.068)">
    <path id="Path_3212" data-name="Path 3212" d="M-143.285,193.068V524.416c5.176-.115,13.86-1.7,19.063-2.135l59.033-5.675v-25.66c-10.491,0-28.505,1.125-38.046.114-3.9-.413-4.049-.563-4.463-4.463l.114-258.945c16.185,0,27.524,2.231,43.51,2.231,0-5.918-2.1-19.554.942-23.6,1.573-2.095,17.132-4.289,21.371-4.289-2.85-3.889-4.693-1.8-10.974-2.414l-90.551-6.511ZM25.076,361.5c0-10.38,3.162-22.206,6.658-29.043,15.374-30.065,51.356-20.18,51.356,32.389,0,18.734-11.055,42.394-29.007,42.395C35.092,407.241,25.076,381.4,25.076,361.5ZM-27.36,527.731c4.857-.4,89.4-37.431,98.336-41.12,36.121-14.909,31.08-9.273,31.08-30.281-9.848,0-15.1,1.115-24.544,1.115-4.625-6.907-3.347-6.6-3.347-18.966,0-7.867,14.7-6.438,18.8-6.864,3.417-.356,3.207-.946,7.979-.946,2.831-12.152,1.116-124.311,1.115-146.15,0-8.6-27.891.556-27.891-11.156,0-12.369-1.278-12.06,3.347-18.966,9.449,0,14.7,1.115,24.544,1.115,0-28,8.168-17.31-45.875-33.336-16.329-4.842-33.086-8.642-49.089-13.388-8.032-2.382-15.44-3.944-23.7-6.443-5.2-1.572-8.7-4.262-9.608.672L-27.36,527.732ZM131.062,401.663v26.776c0,2.571.776,3.347,3.347,3.347h78.1V454.1H131.062v24.545h91.483c6.992,0,10.041-7.608,10.041-14.5V406.126H152.259V386.044H349.73v-25.66H139.988c-6.085,0-7.825,9.721-7.813,16.731.013,8.061-1.112,15-1.112,24.548Zm428.411-53.551c0,5.328,7.469,3.347,21.2,3.347V268.9l47.5,67.416c6.174,8.237,10.411,17.373,21.675,17.373,9.6,0,11.271-8.873,11.147-18.976-.08-6.54.848-8.139,1.131-13.372,1.021-18.916-.006-66.813-.005-88.142H639.8v85.9c-3.065-2.246-11.8-16.583-14.726-20.975l-43.7-63.408c-8.6-6.392-18.106-2.349-20.388,7.806l-1.518,105.584Zm-428.411,3.347h21.2V304.6h58.014v43.51c0,5.416,8.117,3.347,22.313,3.347V233.2c-14.2,0-22.313-2.069-22.313,3.347v42.4H152.26V233.2h-21.2Zm197.47-95.946c0,4.49,2.047,2.209,15.618,2.231l62.478,1.117c-2.267,3.385-10.888,10.179-14.667,13.224-2.144,1.727-3.107,3.063-5.251,4.79l-52.365,44.7c-11.223,10.205-5.276,29.888,7.575,29.888,42.8,0,33.787,3.588,47.694-10.32,3.859-3.858,7.746-7.261,11.378-11.191,5.248-5.679-1.935-4.167-13.33-4.15q-11.714.018-23.429,0l44.96-40.945c9.1-7.7,32.02-25.812,32.02-37.15,0-5.487-7-14.5-13.388-14.5H328.533ZM472.452,376v102.64h20.082V431.785h56.9V407.241h-56.9v-21.2H594.058v-21.2c0-2.726,2.474-4.463-2.231-4.463h-107.1C477.364,360.384,472.452,368.376,472.452,376ZM-48.556,303.486c19.643,0,12.742,20.081,2.231,20.081C-59.3,323.567-57.3,303.486-48.556,303.486Zm-6.694-59.129c0-13.017,20.081-14.07,20.081,0C-35.168,257.682-55.25,257.383-55.25,244.357ZM-58.6,516.575c.917.44,21.726,6.411,23.531,4.606,2.381-2.381,1.013-24.888,1.013-30.266-2.76,1-.764.05-2.48,1.983-12.715,14.328-23.652-3.54-16.194-11.731,8.654-9.5,13.485,1.669,18.674,3.055v-76.98c-5.036,3.689-3.149,7.809-11.156,7.809a9.975,9.975,0,0,1-7.581-16.507A9.923,9.923,0,0,1-38.8,397.482c1.472,1.26.873,1.1,1.969,2.494,2.523,3.2-2.257.772,2.775,2.8l1.116-195.239c-5.25.117-11.222,1.988-17.265,2.817-10.1,1.384-7.353,2.127-7.284,13.914l.03,272.248C-57.423,504.394-58.6,508.1-58.6,516.575ZM454.6,304.6h35.7v46.858c26.385,0,20.082.8,20.082-4.463V304.6h35.7c9.827,0,10.041-21.718,10.041-27.891V233.2h-21.2v45.742H465.76V233.2c-22.147,0-21.211-1.768-21.322,6.57-.049,3.657.135,7.565.117,11.288-.041,8.493,1.181,12.128,1.149,20.049-.025,6.08-.576,15.405.074,21.123C446.3,296.813,450,304.6,454.6,304.6ZM237.051,258.86H303.99v21.2H250.439c-5.585,0-3.347,9.507-3.347,24.544h56.9v46.858h21.2c0-15.206,1.4-98.645-1.845-108.6-1.435-4.4-6.059-9.654-11.543-9.654H237.051ZM357.542,411.7c0,4.839.764,10.148,2.237,13.381a43.067,43.067,0,0,0,3.172,4.638c4.393,3.878,29.8,2.062,40.333,2.062v46.857h20.081V431.786c52.164,0,44.626,10.059,44.626-71.4H447.909v45.742H380.97c-2.571,0-3.347-.776-3.347-3.347V360.384H357.542V411.7ZM665.461,258.86H732.4v21.2H678.849c-5.585,0-3.347,9.507-3.347,24.544h56.9v46.857h20.082V248.819c0-7.627-4.912-15.619-12.272-15.619H665.461v25.66Zm-413.9,150.612v69.17H353.08V451.867H276.1c-5.239,0-3.347-6.854-3.347-20.082h55.783c5.666,0,3.347-10.248,3.347-25.66H254.9C252.333,406.125,251.556,406.9,251.556,409.472ZM78.63,493.146c15.407-3.59,32.54-5.33,47.973-8.925V222.043c-5.292-.44-11.516-1.7-17.516-2.566l-51.209-5.69c7.805,2.6,46.7,11.8,48.908,13.569,3.782,3.019,1.966,15.394,1.966,21.463q0,46.3,0,92.6c0,13.148,2.573,128.543.361,135.354-1.652,5.085-6.366,4.849-14.835,8.594C87.926,488.175,81.112,489.759,78.63,493.146ZM398.822,351.459h21.2c22.911,0,18.966,4.617,18.966-21.2,0-5.943-7.392-4.463-14.5-4.463-5.054,0-11.02,7.727-14.033,11.628C406.284,342.817,402.556,345.882,398.822,351.459ZM32.888,355.921v4.463c4.864-.108,6.983-1.116,13.388-1.116A54.79,54.79,0,0,1,49.33,353.4l2.019-2.444c1.84-2.544,1.622,1.775,1.622-2.841V323.567C39.966,323.857,32.888,346.2,32.888,355.921Zm0,11.157c0,13,8.542,31.393,20.082,32.354,0-6.345,0-12.679.057-19.023.129-13.569-3.506-6.472-5.635-14.446C41.026,365.962,39.675,367.078,32.888,367.078ZM59.664,397.2c9.17-.763,13.977-17.051,15.342-24.862.927-5.305,2.572-9.723-1.954-9.723-6.347,0-5.884,3.073-9.317,7.418-2.02,2.556-1.8.939-2.675,4.019C60.984,374.322,59.664,396.56,59.664,397.2Zm8.925-41.279h6.694c0-8.448-5.125-29.25-15.619-30.123,0,7.643,1.094,10.211,1.062,17.9-.023,5.438-.713,4.862,1.89,8.151C63.776,353.319,66.516,355.921,68.589,355.921Zm12.272-90.368c0,8.026,1.622,7.81,21.2,7.81,0-9.044,3.66-11.157-18.966-11.157C81.529,262.207,80.861,263.728,80.861,265.554ZM81.977,439.6v10.041c25.167,0,20.081-2.741,20.081-11.156-5.637-1.194-12.633,1.115-20.082,1.115ZM54.086,360.384c0,5.137.058,4.492,3.347,6.694,2.969-4.434,3.933-7.776-1.116-11.157C54.969,357.935,54.086,357.883,54.086,360.384Z" transform="translate(0)" fill="#426d53" fill-rule="evenodd"/>
  </g>
</svg>
