<svg id="department" xmlns="http://www.w3.org/2000/svg" width="55.221" height="66.26" viewBox="0 0 55.221 66.26">
  <path id="Path_1156" data-name="Path 1156" d="M61.116,63.24H6V12.717L33.558,2,61.116,12.717Z" transform="translate(-6 -2)" fill="#426d53"/>
  <rect id="Rectangle_426" data-name="Rectangle 426" width="55.22" height="5.02" transform="translate(0 60.24)"/>
  <rect id="Rectangle_427" data-name="Rectangle 427" width="10.04" height="16.06" transform="translate(22.59 50.2)" fill="#f9fffd"/>
  <g id="Group_292" data-name="Group 292" transform="translate(7.53 12.548)">
    <rect id="Rectangle_428" data-name="Rectangle 428" width="10.04" height="7.53" transform="translate(30.12 25.1)" fill="#f9fffd"/>
    <rect id="Rectangle_429" data-name="Rectangle 429" width="10.04" height="7.53" transform="translate(15.06 25.1)" fill="#f9fffd"/>
    <rect id="Rectangle_430" data-name="Rectangle 430" width="10.04" height="7.53" transform="translate(0 25.1)" fill="#f9fffd"/>
    <rect id="Rectangle_431" data-name="Rectangle 431" width="10.04" height="7.53" transform="translate(30.12 37.65)" fill="#f9fffd"/>
    <rect id="Rectangle_432" data-name="Rectangle 432" width="10.04" height="7.53" transform="translate(0 37.65)" fill="#f9fffd"/>
    <rect id="Rectangle_433" data-name="Rectangle 433" width="10.04" height="7.53" transform="translate(30.12 12.55)" fill="#f9fffd"/>
    <rect id="Rectangle_970" data-name="Rectangle 970" width="10.04" height="7.53" transform="translate(30.12 0.55)" fill="#f9fffd"/>
    <rect id="Rectangle_434" data-name="Rectangle 434" width="10.04" height="7.53" transform="translate(15.06 12.55)" fill="#f9fffd"/>
    <rect id="Rectangle_968" data-name="Rectangle 968" width="10.04" height="7.53" transform="translate(15.06 0.55)" fill="#f9fffd"/>
    <rect id="Rectangle_435" data-name="Rectangle 435" width="10.04" height="7.53" transform="translate(0 12.55)" fill="#f9fffd"/>
    <rect id="Rectangle_969" data-name="Rectangle 969" width="10.04" height="7.53" transform="translate(0 0.55)" fill="#f9fffd"/>
  </g>
</svg>
