<svg xmlns="http://www.w3.org/2000/svg" width="117" height="117" viewBox="0 0 117 117">
  <g id="Group_647" data-name="Group 647" transform="translate(9890 9158)">
    <circle id="Ellipse_338" data-name="Ellipse 338" cx="58.5" cy="58.5" r="58.5" transform="translate(-9890 -9158)" fill="#b8c8bf"/>
    <g id="heart-svgrepo-com" transform="translate(-9855.526 -9120.623)">
      <path id="Path_2457" data-name="Path 2457" d="M44.172,32.423a13.305,13.305,0,0,0-18.815.01l-1.314,1.314-1.335-1.335a13.293,13.293,0,0,0-18.815-.02,13.293,13.293,0,0,0,.02,18.815L23.044,70.339a1.365,1.365,0,0,0,1.936.01l19.172-19.1a13.33,13.33,0,0,0,.02-18.826ZM42.216,49.3l-18.2,18.133L5.848,49.272A10.546,10.546,0,1,1,20.762,34.359l2.3,2.3a1.371,1.371,0,0,0,1.946,0l2.282-2.282A10.553,10.553,0,0,1,42.216,49.3Z" transform="translate(0 -28.501)" fill="#426d53" stroke="#426d53" stroke-width="1"/>
    </g>
  </g>
</svg>
