<svg id="Group_519" data-name="Group 519" xmlns="http://www.w3.org/2000/svg" width="22" height="25.186" viewBox="0 0 22 25.186">
  <g id="Group_344" data-name="Group 344" transform="translate(4.158 0)">
    <path id="Path_1380" data-name="Path 1380" d="M29.933,31.678H19.085A1.025,1.025,0,0,1,18,30.594V24.085A1.025,1.025,0,0,1,19.085,23H29.933a1.025,1.025,0,0,1,1.085,1.085v6.509A1.025,1.025,0,0,1,29.933,31.678Z" transform="translate(-18 -16.491)" fill="#426d53"/>
    <path id="Path_1381" data-name="Path 1381" d="M24.339,17A4.352,4.352,0,0,0,20,21.339v3.254h2.17V21.339a2.17,2.17,0,0,1,4.339,0v3.254h2.17V21.339A4.352,4.352,0,0,0,24.339,17Z" transform="translate(-17.83 -17)" fill="#426d53"/>
  </g>
  <text id="_" data-name="***" transform="translate(0 15.186)" fill="#426d53" font-size="6" font-family="Roboto-Bold, Roboto" font-weight="700" letter-spacing="0.025em"><tspan x="6.438" y="6">***</tspan></text>
</svg>
