<svg xmlns="http://www.w3.org/2000/svg" width="71" height="72" viewBox="0 0 71 72">
  <g id="Group_648" data-name="Group 648" transform="translate(9240 9525)">
    <ellipse id="Ellipse_339" data-name="Ellipse 339" cx="35.5" cy="36" rx="35.5" ry="36" transform="translate(-9240 -9525)" fill="#426d53"/>
    <path id="ic_shopping_cart_24px" d="M11.4,25.3a2.73,2.73,0,1,0,2.73,2.73A2.726,2.726,0,0,0,11.4,25.3ZM.425,3.137V5.245h4.26l4.03,16.407c.834,1.287.673.951,2.047,1.925H23.249a2.717,2.717,0,0,0,2.389-1.406l3.023-11.729a1.334,1.334,0,0,0,.164-.655A1.369,1.369,0,0,0,27.46,8.421H7.032l1.178,2.02h18.3L23.773,20.816l-1.8.835H12.393l-1.631-.835L6.293,3.137H.425ZM22.908,25.3a2.73,2.73,0,1,0,2.73,2.73A2.726,2.726,0,0,0,22.908,25.3Z" transform="translate(-9218.982 -9504.692)" fill="#fff" stroke="#fff" stroke-width="1"/>
  </g>
</svg>
