<svg xmlns="http://www.w3.org/2000/svg" width="45" height="45" viewBox="0 0 45 45">
  <g id="Group_636" data-name="Group 636" transform="translate(-1673 -97)">
    <circle id="Ellipse_318" data-name="Ellipse 318" cx="22.5" cy="22.5" r="22.5" transform="translate(1673 97)" fill="#b8c8bf"/>
    <g id="heart-svgrepo-com" transform="translate(1695.697 109.696)">
      <path id="Path_2457" data-name="Path 2457" d="M20.5,30.321a6.175,6.175,0,0,0-8.733,0l-.61.61-.619-.619a6.17,6.17,0,0,0-8.733-.009,6.17,6.17,0,0,0,.009,8.733L10.7,47.919a.634.634,0,0,0,.9,0l8.9-8.865a6.187,6.187,0,0,0,.009-8.737Zm-.908,7.834-8.449,8.416-8.43-8.43A4.895,4.895,0,1,1,9.636,31.22L10.7,32.288a.636.636,0,0,0,.9,0l1.059-1.059a4.9,4.9,0,0,1,6.927,6.927Z" transform="translate(-12 -27.501)" fill="#acacac" stroke="#426d53" stroke-width="2"/>
    </g>
  </g>
</svg>
