<svg xmlns="http://www.w3.org/2000/svg" width="45" height="45" viewBox="0 0 45 45">
  <g id="Group_635" data-name="Group 635" transform="translate(-1585 -97)">
    <circle id="Ellipse_316" data-name="Ellipse 316" cx="22.5" cy="22.5" r="22.5" transform="translate(1585 97)" fill="#426d53"/>
    <path id="ic_shopping_cart_24px" d="M8.188,18.816a1.931,1.931,0,1,0,1.931,1.931A1.928,1.928,0,0,0,8.188,18.816ZM.425,3.137v1.49H3.438l2.85,11.6c.59.91.476.673,1.448,1.361h8.832a1.922,1.922,0,0,0,1.689-.994L20.4,8.3a.943.943,0,0,0,.116-.463.968.968,0,0,0-.965-.965H5.1L5.931,8.3H18.872l-1.934,7.338-1.271.591H8.889l-1.153-.591-3.16-12.5H.425Zm15.9,15.678a1.931,1.931,0,1,0,1.931,1.931A1.928,1.928,0,0,0,16.327,18.816Z" transform="translate(1596.127 107.469)" fill="#fff" stroke="#fff" stroke-width="1"/>
    <g id="Group_477" data-name="Group 477">
      <g id="Path_3384" data-name="Path 3384" transform="translate(1613.482 98.118)" fill="#ff2300">
        <path d="M 8.038238525390625 14.73272895812988 C 3.881638526916504 14.73272895812988 0.499998539686203 11.35108852386475 0.499998539686203 7.194488525390625 C 0.499998539686203 3.037888526916504 3.881638526916504 -0.343751460313797 8.038238525390625 -0.343751460313797 C 12.19483852386475 -0.343751460313797 15.57647895812988 3.037888526916504 15.57647895812988 7.194488525390625 C 15.57647895812988 11.35108852386475 12.19483852386475 14.73272895812988 8.038238525390625 14.73272895812988 Z" stroke="none"/>
        <path d="M 8.038238525390625 -0.09375190734863281 C 4.013058662414551 -0.09375190734863281 0.7499980926513672 3.169308662414551 0.7499980926513672 7.194488525390625 C 0.7499980926513672 11.2196683883667 4.013058662414551 14.48272895812988 8.038238525390625 14.48272895812988 C 12.0634183883667 14.48272895812988 15.32647895812988 11.2196683883667 15.32647895812988 7.194488525390625 C 15.32647895812988 3.169308662414551 12.0634183883667 -0.09375190734863281 8.038238525390625 -0.09375190734863281 M 8.038238525390625 -0.5937519073486328 C 12.332688331604 -0.5937519073486328 15.82647895812988 2.900038719177246 15.82647895812988 7.194488525390625 C 15.82647895812988 11.488938331604 12.332688331604 14.98272895812988 8.038238525390625 14.98272895812988 C 3.743788719177246 14.98272895812988 0.2499980926513672 11.488938331604 0.2499980926513672 7.194488525390625 C 0.2499980926513672 2.900038719177246 3.743788719177246 -0.5937519073486328 8.038238525390625 -0.5937519073486328 Z" stroke="none" fill="#f6f4f6"/>
      </g>
      <text id="_1" data-name="1" transform="translate(1621.521 108.313)" fill="#fff" font-size="7" font-family="Arial-Black, Arial" font-weight="800" letter-spacing="0.025em"><tspan x="-2.334" y="0">1</tspan></text>
    </g>
  </g>
</svg>
