<svg xmlns="http://www.w3.org/2000/svg" width="61.259" height="81.665" viewBox="0 0 61.259 81.665">
  <path id="ic_whatshot_24px" d="M40.372.67s2.833,10.146,2.833,18.378c0,7.887-5.169,14.281-13.056,14.281a13.935,13.935,0,0,1-13.9-14.281l.115-1.378A52.713,52.713,0,0,0,4,51.706a30.629,30.629,0,0,0,61.259,0A65.526,65.526,0,0,0,40.372.67ZM33.519,70.849A12.16,12.16,0,0,1,21.191,58.827c0-6.2,4.02-10.567,10.759-11.945C38.726,45.5,45.733,42.249,49.638,37A53.422,53.422,0,0,1,51.9,52.472,18.382,18.382,0,0,1,33.519,70.849Z" transform="translate(-4 -0.67)" fill="#426d53"/>
</svg>
