<svg id="key" xmlns="http://www.w3.org/2000/svg" width="42.761" height="59.865" viewBox="0 0 42.761 59.865">
  <g id="Group_332" data-name="Group 332" transform="translate(0 0)">
    <path id="Path_1354" data-name="Path 1354" d="M35.1,49.507l-5.7,5.7H23.7l-5.7-5.7V21H35.1V32.4l-2.851,2.851L35.1,38.1v2.851l-2.851,2.851L35.1,46.656Z" transform="translate(-5.172 4.656)" fill="#426d53"/>
    <path id="Path_1355" data-name="Path 1355" d="M50.335,9.842A7.632,7.632,0,0,0,45.061,4.71,71.533,71.533,0,0,0,30.38,3,71.533,71.533,0,0,0,15.7,4.71a7.632,7.632,0,0,0-5.274,5.131A34.639,34.639,0,0,0,9,19.392a34.639,34.639,0,0,0,1.425,9.55A6.962,6.962,0,0,0,15.7,33.93,61.671,61.671,0,0,0,30.38,35.783a71.534,71.534,0,0,0,14.681-1.71,7.2,7.2,0,0,0,5.274-4.989,34.639,34.639,0,0,0,1.425-9.55A34.883,34.883,0,0,0,50.335,9.842ZM37.507,17.253H23.254A2.859,2.859,0,0,1,20.4,14.4V11.552c0-.855,4.419-1.425,9.977-1.425s9.977.57,9.977,1.425V14.4A2.859,2.859,0,0,1,37.507,17.253Z" transform="translate(-9 -3)" fill="#426d53"/>
  </g>
  <rect id="Rectangle_540" data-name="Rectangle 540" width="2.851" height="27.082" transform="translate(19.955 32.783)" fill="#86a294"/>
</svg>
