<svg id="key" xmlns="http://www.w3.org/2000/svg" width="11.419" height="15.987" viewBox="0 0 11.419 15.987">
  <g id="Group_332" data-name="Group 332" transform="translate(0 0)">
    <path id="Path_1354" data-name="Path 1354" d="M22.568,28.613l-1.523,1.523H19.523L18,28.613V21h4.568v3.045l-.761.761.761.761v.761l-.761.761.761.761Z" transform="translate(-14.574 -14.148)" fill="#426d53"/>
    <path id="Path_1355" data-name="Path 1355" d="M20.039,4.827a2.038,2.038,0,0,0-1.408-1.37A19.1,19.1,0,0,0,14.71,3a19.1,19.1,0,0,0-3.921.457,2.038,2.038,0,0,0-1.408,1.37A9.25,9.25,0,0,0,9,7.377a9.25,9.25,0,0,0,.381,2.55,1.859,1.859,0,0,0,1.408,1.332,16.469,16.469,0,0,0,3.921.495A19.1,19.1,0,0,0,18.63,11.3a1.922,1.922,0,0,0,1.408-1.332,9.25,9.25,0,0,0,.381-2.55A9.316,9.316,0,0,0,20.039,4.827ZM16.613,6.806H12.806a.764.764,0,0,1-.761-.761V5.284c0-.228,1.18-.381,2.665-.381s2.665.152,2.665.381v.761A.764.764,0,0,1,16.613,6.806Z" transform="translate(-9 -3)" fill="#426d53"/>
  </g>
  <rect id="Rectangle_540" data-name="Rectangle 540" width="0.761" height="7.232" transform="translate(5.329 8.755)" fill="#86a294"/>
</svg>
